#!OML:ASF G:\JayActor3\Patient Classification 1\Patient 1\Session 6\male.ASF
:FULLY-SPECIFIED
:DEGREES
819
root 20.7472 16.2896 -23.5744 156.583 -78.9067 -162.512
lowerback 7.67428 -1.45948 6.08253
upperback -2.52823 -1.25015 1.53951
thorax -7.08334 -0.858473 -1.62118
lowerneck 3.37573 10.066 8.39311
upperneck 5.74511 13.571 -1.10663
head 1.94325 6.90224 -1.57763
rclavicle -9.14409e-015 4.77083e-015
rhumerus -36.9912 0.00218559 -72.2675
rradius 38.3168
rwrist 4.62402
rhand -5.70973 -1.66859
rfingers 7.12502
rthumb 20.1114 -30.6476
lclavicle -9.14409e-015 4.77083e-015
lhumerus -42.2359 -14.3783 86.0202
lradius 36.1012
lwrist 26.7849
lhand -9.09139 9.45396
lfingers 7.12502
lthumb 16.8585 38.7422
rfemur -0.897003 -1.7142 27.111
rtibia 25.9935
rfoot -21.6241 -16.1078
rtoes 3.14343
lfemur -10.6392 14.5343 -6.27187
ltibia 67.2921
lfoot -6.76887 10.4145
ltoes 2.25927
820
root 20.6895 16.287 -23.6133 155.634 -79.0748 -161.599
lowerback 7.74647 -1.42099 6.23142
upperback -2.50384 -1.17756 1.56609
thorax -7.09702 -0.829035 -1.68543
lowerneck 3.41103 10.0206 8.36338
upperneck 5.88683 13.504 -1.0158
head 1.97057 6.87094 -1.54421
rclavicle -3.00165e-014 3.61788e-014
rhumerus -36.8697 0.112285 -72.3328
rradius 38.3507
rwrist 4.69464
rhand -5.5685 -1.7341
rfingers 7.12502
rthumb 20.2471 -30.6988
lclavicle -3.00165e-014 3.61788e-014
lhumerus -42.4258 -14.3041 85.997
lradius 35.6965
lwrist 26.4728
lhand -8.86506 9.52598
lfingers 7.12502
lthumb 17.0763 38.7955
rfemur -0.478611 -1.9073 27.3119
rtibia 25.8048
rfoot -21.85 -16.0712
rtoes 3.45033
lfemur -11.8319 14.7371 -6.54202
ltibia 67.9545
lfoot -7.18305 10.3058
ltoes 2.0636
821
root 20.6313 16.2837 -23.6512 154.708 -79.2244 -160.704
lowerback 7.80592 -1.37663 6.37079
upperback -2.47436 -1.09908 1.59581
thorax -7.09678 -0.79582 -1.74235
lowerneck 3.43658 9.97098 8.33236
upperneck 6.0195 13.4311 -0.934879
head 1.9971 6.83647 -1.51359
rclavicle -1.88845e-015 -2.78299e-015
rhumerus -36.7561 0.217875 -72.3937
rradius 38.3919
rwrist 4.75416
rhand -5.43427 -1.78927
rfingers 7.12502
rthumb 20.3761 -30.7403
lclavicle -1.88845e-015 -2.78299e-015
lhumerus -42.6231 -14.2135 85.9696
lradius 35.3048
lwrist 26.1268
lhand -8.66264 9.56716
lfingers 7.12502
lthumb 17.2712 38.8197
rfemur -0.0634086 -2.07695 27.5151
rtibia 25.5973
rfoot -22.0401 -16.0788
rtoes 3.63069
lfemur -13.0004 14.9516 -6.8296
ltibia 68.5304
lfoot -7.5953 10.2433
ltoes 1.94621
822
root 20.5724 16.2796 -23.6881 153.78 -79.3588 -159.797
lowerback 7.8444 -1.33098 6.50635
upperback -2.44103 -1.02102 1.62875
thorax -7.07988 -0.762107 -1.79425
lowerneck 3.47365 9.92277 8.3106
upperneck 6.12166 13.3627 -0.871668
head 2.01406 6.8038 -1.49141
rclavicle 5.46658e-016 -5.96354e-015
rhumerus -36.6544 0.318141 -72.4542
rradius 38.4373
rwrist 4.80908
rhand -5.33564 -1.79821
rfingers 7.12502
rthumb 20.4709 -30.739
lclavicle 5.46658e-016 -5.96354e-015
lhumerus -42.8246 -14.0936 85.9281
lradius 34.9242
lwrist 25.7561
lhand -8.46591 9.60554
lfingers 7.12502
lthumb 17.4605 38.8414
rfemur 0.344852 -2.22476 27.7256
rtibia 25.3698
rfoot -22.1972 -16.1362
rtoes 3.68036
lfemur -14.1533 15.1765 -7.13078
ltibia 69.0211
lfoot -8.00184 10.2343
ltoes 1.87098
823
root 20.5128 16.2752 -23.724 152.912 -79.4914 -158.945
lowerback 7.86695 -1.28367 6.62959
upperback -2.40363 -0.943759 1.65699
thorax -7.049 -0.727825 -1.84453
lowerneck 3.51752 9.88068 8.29657
upperneck 6.19011 13.3045 -0.818067
head 2.02067 6.77577 -1.47454
rclavicle 2.32081e-014 -2.62396e-014
rhumerus -36.5815 0.403972 -72.513
rradius 38.5004
rwrist 4.8575
rhand -5.2884 -1.78009
rfingers 7.12502
rthumb 20.5163 -30.716
lclavicle 2.32081e-014 -2.62396e-014
lhumerus -43.0297 -13.951 85.8712
lradius 34.5599
lwrist 25.375
lhand -8.30456 9.63578
lfingers 7.12502
lthumb 17.6158 38.8578
rfemur 0.752028 -2.35862 27.9217
rtibia 25.1256
rfoot -22.3376 -16.2222
rtoes 3.65364
lfemur -15.2841 15.4081 -7.46476
ltibia 69.4223
lfoot -8.37788 10.2853
ltoes 1.87799
824
root 20.4525 16.2709 -23.759 152.104 -79.6222 -158.143
lowerback 7.87171 -1.23426 6.74213
upperback -2.35947 -0.866932 1.68054
thorax -7.00022 -0.692673 -1.89412
lowerneck 3.5554 9.84745 8.28419
upperneck 6.22552 13.2589 -0.769921
head 2.01863 6.75356 -1.45989
rclavicle 6.4605e-016 -9.54166e-015
rhumerus -36.5153 0.461926 -72.5667
rradius 38.5648
rwrist 4.91144
rhand -5.28889 -1.73342
rfingers 7.12502
rthumb 20.5158 -30.6694
lclavicle 6.4605e-016 -9.54166e-015
lhumerus -43.2331 -13.7887 85.7982
lradius 34.2114
lwrist 25.0036
lhand -8.18858 9.66273
lfingers 7.12502
lthumb 17.7274 38.8747
rfemur 1.15969 -2.47527 28.1022
rtibia 24.8727
rfoot -22.49 -16.3006
rtoes 3.65464
lfemur -16.3949 15.65 -7.83008
ltibia 69.7296
lfoot -8.70943 10.4007
ltoes 1.82221
825
root 20.3918 16.2665 -23.7931 151.315 -79.7599 -157.355
lowerback 7.86869 -1.18733 6.84679
upperback -2.31404 -0.795261 1.69948
thorax -6.94571 -0.659494 -1.94356
lowerneck 3.59152 9.8249 8.27939
upperneck 6.23384 13.2285 -0.725494
head 2.00962 6.73868 -1.44785
rclavicle 2.10215e-014 7.55382e-015
rhumerus -36.4742 0.495348 -72.6158
rradius 38.6449
rwrist 4.96761
rhand -5.32244 -1.67308
rfingers 7.12502
rthumb 20.4836 -30.6126
lclavicle 2.10215e-014 7.55382e-015
lhumerus -43.4379 -13.6063 85.7098
lradius 33.8742
lwrist 24.6568
lhand -8.13216 9.6893
lfingers 7.12502
lthumb 17.7817 38.8963
rfemur 1.56398 -2.5935 28.2672
rtibia 24.6182
rfoot -22.6494 -16.3638
rtoes 3.65718
lfemur -17.4855 15.8966 -8.22203
ltibia 69.9425
lfoot -9.00291 10.5515
ltoes 1.65677
826
root 20.3305 16.2618 -23.8263 150.533 -79.8962 -156.571
lowerback 7.8609 -1.1409 6.94846
upperback -2.26241 -0.725529 1.7158
thorax -6.88176 -0.626679 -1.99391
lowerneck 3.59886 9.81385 8.26909
upperneck 6.234 13.2111 -0.67311
head 2.00247 6.7302 -1.43072
rclavicle 1.20762e-014 -1.03368e-014
rhumerus -36.4517 0.521322 -72.6656
rradius 38.7464
rwrist 5.00182
rhand -5.37042 -1.64382
rfingers 7.12502
rthumb 20.4375 -30.5882
lclavicle 1.20762e-014 -1.03368e-014
lhumerus -43.6423 -13.4086 85.6082
lradius 33.5516
lwrist 24.353
lhand -8.13561 9.71984
lfingers 7.12502
lthumb 17.7784 38.9271
rfemur 1.96948 -2.71463 28.4205
rtibia 24.3663
rfoot -22.8141 -16.4062
rtoes 3.66549
lfemur -18.5448 16.1557 -8.62976
ltibia 70.0602
lfoot -9.25497 10.7195
ltoes 1.37136
827
root 20.2686 16.2566 -23.8588 149.702 -80.0292 -155.738
lowerback 7.85448 -1.09506 7.05743
upperback -2.20974 -0.655981 1.73096
thorax -6.81747 -0.594153 -2.04942
lowerneck 3.58748 9.80983 8.25878
upperneck 6.22853 13.2016 -0.616168
head 1.99672 6.7257 -1.41108
rclavicle -9.74045e-015 -1.35174e-014
rhumerus -36.4501 0.527459 -72.7137
rradius 38.8608
rwrist 5.01208
rhand -5.41873 -1.62568
rfingers 7.12502
rthumb 20.391 -30.5751
lclavicle -9.74045e-015 -1.35174e-014
lhumerus -43.8529 -13.2032 85.5011
lradius 33.2415
lwrist 24.1291
lhand -8.19575 9.76176
lfingers 7.12502
lthumb 17.7205 38.9743
rfemur 2.37547 -2.8467 28.5727
rtibia 24.1149
rfoot -22.9682 -16.4405
rtoes 3.62811
lfemur -19.5724 16.4238 -9.04022
ltibia 70.0851
lfoot -9.47441 10.8726
ltoes 0.984265
828
root 20.206 16.251 -23.8905 148.829 -80.152 -154.862
lowerback 7.85463 -1.05191 7.16922
upperback -2.16192 -0.588961 1.74718
thorax -6.76223 -0.563242 -2.10477
lowerneck 3.57647 9.809 8.26003
upperneck 6.21429 13.1977 -0.572797
head 1.9903 6.72395 -1.39763
rclavicle -6.90777e-015 -5.56597e-015
rhumerus -36.4737 0.540524 -72.7681
rradius 38.9797
rwrist 4.99189
rhand -5.45555 -1.61701
rfingers 7.12502
rthumb 20.3557 -30.5702
lclavicle -6.90777e-015 -5.56597e-015
lhumerus -44.0786 -12.9759 85.3829
lradius 32.9381
lwrist 23.9832
lhand -8.28993 9.82229
lfingers 7.12502
lthumb 17.6298 39.043
rfemur 2.7856 -2.98479 28.727
rtibia 23.8597
rfoot -23.1135 -16.4619
rtoes 3.579
lfemur -20.5627 16.7075 -9.44736
ltibia 70.0168
lfoot -9.65259 10.9856
ltoes 0.566022
